<svg width="110" height="40" viewBox="0 0 110 40" fill="none" xmlns="http://www.w3.org/2000/svg">
<g id="elysian-logo-negative" clip-path="url(#clip0_101_107)">
<g id="uuid-dd0a25db-5224-485f-b45d-d4edda70e052">
<path id="Vector" d="M1.14034 30.5227V30.122H1.90177C2.49197 30.122 2.97288 30.0419 3.34813 29.8816C3.72338 29.7214 3.98934 29.4191 4.15329 28.9783C4.31359 28.5376 4.39374 27.9148 4.39374 27.1098V5.25952C4.39374 4.42907 4.31359 3.79895 4.15329 3.3728C3.99298 2.94665 3.72338 2.65162 3.34813 2.48771C2.97288 2.32745 2.49197 2.24732 1.90177 2.24732H1.14034V1.84666H18.6971L18.8974 8.83628H18.4967L18.4165 6.94956C18.3364 5.71845 18.1433 4.76052 17.8336 4.07941C17.5239 3.39829 17.0357 2.92115 16.369 2.65526C15.6987 2.38937 14.7478 2.2546 13.5164 2.2546H8.09162V15.3087H16.7698V15.7093H8.09162L8.05154 30.1293H14.6385C15.8444 30.1293 16.788 30.0018 17.4693 29.7469C18.1506 29.4919 18.646 29.0439 18.9557 28.4028C19.2618 27.7618 19.4585 26.8621 19.5386 25.7112L19.6589 23.544H20.0596L19.8192 30.5336H1.14034V30.5227Z" fill="#F2FBFF"/>
<path id="Vector_2" d="M21.9104 30.5227V30.122H22.231C22.9815 30.122 23.5644 30.0419 23.9797 29.8816C24.3951 29.7214 24.6829 29.4263 24.8432 28.9965C25.0035 28.5667 25.0836 27.9512 25.0836 27.1499V3.29266C25.0836 2.46221 24.9816 1.83937 24.7812 1.42415C24.5809 1.00892 24.2858 0.735749 23.8959 0.600983C23.5061 0.466217 23.007 0.400656 22.3913 0.400656H21.9104V0H28.6576V27.0698C28.6576 27.9257 28.7305 28.5704 28.8799 28.9965C29.0256 29.4263 29.3134 29.7177 29.7433 29.8816C30.1732 30.0419 30.7489 30.122 31.4702 30.122H31.8309V30.5227H21.9067H21.9104Z" fill="#F2FBFF"/>
<path id="Vector_3" d="M31.6451 39.5994C33.0368 39.5994 34.1953 39.4864 35.1207 39.257C36.0461 39.0275 36.8294 38.6269 37.4706 38.0514C38.1118 37.4759 38.6838 36.6855 39.1793 35.6802C39.6748 34.6749 40.163 33.3965 40.6439 31.8449L33.0514 11.6445C32.8109 11.0035 32.6033 10.519 32.4284 10.1985C32.2535 9.87799 32.0531 9.6631 31.8272 9.55747C31.5977 9.45184 31.2844 9.39721 30.8836 9.39721H30.4829V8.99655H38.9607V9.39721H38.7603C37.9552 9.39721 37.3795 9.48462 37.0334 9.65945C36.6837 9.83429 36.5124 10.1366 36.5124 10.5628C36.5124 10.8323 36.5671 11.1601 36.6727 11.5462C36.7784 11.9359 36.9278 12.3839 37.1136 12.8902L40.0464 21.2457C40.2868 21.9159 40.4872 22.4914 40.6475 22.9721C40.8078 23.4529 40.9608 23.9009 41.1102 24.3162C41.2559 24.7314 41.4053 25.1721 41.551 25.642C41.6968 26.1118 41.8643 26.68 42.0538 27.3502C42.2942 26.5453 42.5493 25.6711 42.8152 24.7205C43.0812 23.7698 43.3508 22.841 43.6204 21.9304L46.2727 12.8538C46.433 12.2637 46.5459 11.7975 46.6151 11.4478C46.6807 11.1018 46.7171 10.8177 46.7171 10.6028C46.7171 10.2022 46.575 9.89985 46.2945 9.69952C46.014 9.49919 45.4566 9.39721 44.6259 9.39721H43.3799V8.99655H49.8467V9.39721H49.6062C49.0707 9.39721 48.6408 9.47005 48.3202 9.61939C47.9995 9.76872 47.7299 10.0565 47.515 10.4826C47.3 10.9124 47.0596 11.5535 46.7936 12.4094L41.2486 31.4078C40.7386 33.1488 40.2103 34.5802 39.6602 35.7057C39.1101 36.8312 38.5016 37.7017 37.8313 38.3173C37.1609 38.9328 36.3667 39.3663 35.4413 39.6212C34.516 39.8762 33.4376 40.0037 32.2061 40.0037H31.6451V39.603V39.5994Z" fill="#F2FBFF"/>
<path id="Vector_4" d="M54.7832 30.9233C53.417 30.9233 52.2913 30.723 51.4096 30.3224C50.5243 29.9217 49.8685 29.3936 49.4423 28.7343C49.0124 28.0787 48.8011 27.3757 48.8011 26.6254C48.8011 26.0098 48.914 25.5218 49.1435 25.1612C49.3694 24.8006 49.6536 24.5383 49.9888 24.3781C50.3239 24.2178 50.6773 24.1377 51.0526 24.1377C51.0526 25.5837 51.1728 26.7747 51.4133 27.7108C51.6537 28.6469 52.0617 29.3499 52.6374 29.8197C53.213 30.2896 53.9708 30.5227 54.9071 30.5227C56.164 30.5227 57.155 30.1621 57.88 29.4373C58.605 28.7125 58.9657 27.6161 58.9657 26.1446C58.9657 25.234 58.8163 24.5056 58.5248 23.9556C58.2297 23.4056 57.7634 22.9175 57.1185 22.4914C56.4773 22.0616 55.6467 21.5662 54.6266 21.0053C53.4462 20.3897 52.4589 19.7888 51.6537 19.1987C50.8486 18.6086 50.2474 17.9421 49.8467 17.1918C49.4459 16.4415 49.2455 15.5054 49.2455 14.3799C49.2455 12.5078 49.8066 11.0872 50.9323 10.122C52.0581 9.15681 53.5955 8.67603 55.552 8.67603C56.7287 8.67603 57.7197 8.84357 58.5248 9.17867C59.33 9.51376 59.9311 9.96177 60.3319 10.5227C60.7326 11.0836 60.933 11.7137 60.933 12.4094C60.933 13.1051 60.7326 13.6551 60.3319 14.0557C59.9311 14.4564 59.3409 14.6567 58.5649 14.6567C58.5649 12.6498 58.3172 11.2184 57.8217 10.3588C57.3262 9.50283 56.5174 9.07304 55.3917 9.07304C54.6412 9.07304 54.0072 9.21873 53.4826 9.51376C52.9616 9.80879 52.5499 10.2349 52.2585 10.7995C51.9634 11.3604 51.8176 12.0707 51.8176 12.9266C51.8176 13.7826 51.978 14.5402 52.2986 15.1157C52.6192 15.6911 53.1219 16.2011 53.8069 16.6418C54.4881 17.0825 55.3407 17.5597 56.3571 18.0659C57.4537 18.6014 58.3864 19.1441 59.1478 19.6941C59.9093 20.244 60.4995 20.9142 60.9148 21.701C61.3301 22.4914 61.5378 23.4894 61.5378 24.6913C61.5378 26.6473 60.9622 28.1734 59.8109 29.2697C58.6596 30.3661 56.9837 30.9161 54.7905 30.9161L54.7832 30.9233Z" fill="#F2FBFF"/>
<path id="Vector_5" d="M62.0952 30.5227V30.122H62.6162C63.312 30.122 63.8549 30.0419 64.2447 29.8816C64.6309 29.7214 64.9078 29.419 65.0681 28.9783C65.2284 28.5376 65.3085 27.9002 65.3085 27.0697V12.4094C65.3085 11.5789 65.2284 10.9561 65.0681 10.5409C64.9078 10.1257 64.6382 9.83062 64.2629 9.65579C63.8877 9.48096 63.3667 9.39355 62.6963 9.39355H62.3757V8.99289H68.8825V27.0661C68.8825 27.8965 68.9554 28.5303 69.1048 28.9747C69.2505 29.4154 69.5274 29.7177 69.9281 29.878C70.3289 30.0382 70.879 30.1184 71.5749 30.1184H72.0157V30.519H62.0916L62.0952 30.5227Z" fill="#F2FBFF"/>
<path id="Vector_6" d="M78.0015 30.9233C76.3949 30.9233 75.0906 30.4025 74.0851 29.3571C73.0795 28.3118 72.5804 26.8257 72.5804 24.8989C72.5804 22.8119 73.2216 21.2712 74.5077 20.2805C75.7937 19.2898 77.7465 18.7398 80.3733 18.6341L83.1859 18.5139V14.9008C83.1859 13.4548 83.0984 12.3038 82.9235 11.4478C82.7487 10.5919 82.4426 9.97633 81.9982 9.60117C81.5573 9.22601 80.9343 9.04025 80.1292 9.04025C78.9488 9.04025 78.14 9.48098 77.6992 10.3661C77.2583 11.2511 77.0361 12.7773 77.0361 14.9445C76.0451 14.9445 75.2873 14.7623 74.7664 14.4018C74.2454 14.0412 73.9831 13.4584 73.9831 12.6534C73.9831 11.7975 74.2636 11.0654 74.8283 10.4644C75.3893 9.86342 76.1617 9.40813 77.1381 9.09853C78.1145 8.79258 79.2074 8.63596 80.4134 8.63596C82.5301 8.63596 84.1222 9.15681 85.1933 10.2022C86.2644 11.2475 86.7999 13.0395 86.7999 15.5855V27.1936C86.7999 27.9986 86.8619 28.6141 86.9821 29.0403C87.1023 29.4701 87.3246 29.7578 87.6452 29.9035C87.9658 30.0492 88.3811 30.1257 88.8911 30.1257H89.0114V30.5263H83.3462V26.5489H83.266C82.9964 27.5141 82.6175 28.3227 82.122 28.9783C81.6265 29.634 81.0291 30.122 80.3332 30.4426C79.6373 30.7631 78.8613 30.9233 78.0015 30.9233ZM79.0471 30.1184C79.8778 30.1184 80.5992 29.8379 81.2149 29.2734C81.8306 28.7124 82.3115 27.9476 82.6612 26.986C83.0073 26.0208 83.1822 24.9645 83.1822 23.8135V18.9146L81.1347 19.0348C79.2584 19.1404 77.9687 19.6649 77.2583 20.601C76.5479 21.5371 76.1945 23.0122 76.1945 25.0191C76.1945 26.1701 76.3002 27.1208 76.5151 27.8711C76.7301 28.6214 77.0434 29.1823 77.4587 29.5575C77.874 29.9326 78.4023 30.1184 79.0471 30.1184Z" fill="#F2FBFF"/>
<path id="Vector_7" d="M88.9312 30.5227V30.122H89.2118C89.9623 30.122 90.5379 30.0419 90.9386 29.8816C91.3394 29.7214 91.609 29.4081 91.7438 28.9383C91.8786 28.472 91.9442 27.8091 91.9442 26.9496V12.4495C91.9442 11.5935 91.8786 10.9488 91.7438 10.5227C91.609 10.0929 91.3467 9.8015 90.9605 9.63759C90.5707 9.47733 90.0169 9.3972 89.2919 9.3972H89.0915V8.99655H95.4781V12.77H95.5583C95.8242 11.8048 96.2068 11.0217 96.7022 10.4207C97.1977 9.81971 97.7916 9.37171 98.4911 9.07668C99.1869 8.78165 99.952 8.63596 100.783 8.63596C102.79 8.63596 104.266 9.2333 105.202 10.4243C106.138 11.6154 106.608 13.5385 106.608 16.1865V26.9496C106.608 27.8055 106.674 28.4611 106.809 28.9164C106.943 29.3717 107.195 29.6849 107.57 29.8598C107.945 30.0346 108.466 30.122 109.137 30.122H109.297V30.5227H103.031V15.5017C103.031 13.5203 102.783 12.0197 102.287 11.0035C101.792 9.98726 100.928 9.47733 99.697 9.47733C98.8117 9.47733 98.0575 9.75051 97.4272 10.3005C96.797 10.8505 96.3233 11.6518 96.0027 12.7117C95.6821 13.768 95.5218 15.0756 95.5218 16.6272V27.0297C95.5218 27.8601 95.5947 28.5012 95.7441 28.9565C95.8898 29.4118 96.1521 29.7214 96.5274 29.8816C96.9026 30.0419 97.4527 30.122 98.1741 30.122H98.3745V30.5227H88.9349H88.9312Z" fill="#F2FBFF"/>
<path id="Vector_8" d="M20.4932 32.3693H0V32.77H20.4932V32.3693Z" fill="#F2FBFF"/>
<path id="Vector_9" d="M65.9133 1.95229L66.9808 0L68.0482 1.95229C68.2814 2.37844 68.6311 2.7281 69.0538 2.95757L71.0065 4.02477L69.0538 5.09197C68.6275 5.32508 68.2778 5.67474 68.0482 6.09725L66.9808 8.04954L65.9133 6.09725C65.6801 5.6711 65.3304 5.32143 64.9078 5.09197L62.955 4.02477L64.9078 2.95757C65.334 2.72446 65.6838 2.3748 65.9133 1.95229Z" fill="#F2FBFF"/>
<path id="Vector_10" d="M20.4932 0H0V0.400656H20.4932V0Z" fill="#F2FBFF"/>
</g>
</g>
<defs>
<clipPath id="clip0_101_107">
<rect width="109.297" height="40" fill="white"/>
</clipPath>
</defs>
</svg>
