<svg width="423" height="156" viewBox="0 0 423 156" fill="none" xmlns="http://www.w3.org/2000/svg">
<g clip-path="url(#clip0_226_1198)">
<path d="M4.41333 119.038V117.476H7.36023C9.64443 117.476 11.5056 117.163 12.9579 116.538C14.4102 115.913 15.4395 114.734 16.074 113.015C16.6944 111.297 17.0046 108.868 17.0046 105.728V20.5121C17.0046 17.2734 16.6944 14.8159 16.074 13.1539C15.4536 11.4919 14.4102 10.3413 12.9579 9.70206C11.5056 9.07703 9.64443 8.76452 7.36023 8.76452H4.41333V7.20197H72.3612L73.1367 34.4615H71.5857L71.2755 27.1033C70.9653 22.3019 70.218 18.566 69.0195 15.9097C67.821 13.2533 65.9316 11.3925 63.3513 10.3555C60.7569 9.31852 57.0768 8.79293 52.311 8.79293H31.3161V59.7039H64.9023V61.2664H31.3161L31.161 117.504H56.6538C61.3209 117.504 64.9728 117.007 67.6095 116.013C70.2462 115.018 72.1638 113.271 73.3623 110.771C74.5467 108.271 75.3081 104.762 75.6183 100.274L76.0836 91.8215H77.6346L76.704 119.081H4.41333V119.038Z" fill="#F2FBFF"/>
<path d="M84.7973 119.038V117.476H86.0381C88.9427 117.476 91.1987 117.163 92.8061 116.538C94.4135 115.913 95.5274 114.763 96.1478 113.087C96.7682 111.41 97.0784 109.01 97.0784 105.885V12.8414C97.0784 9.60262 96.6836 7.17356 95.9081 5.55418C95.1326 3.9348 93.9905 2.86942 92.4818 2.34384C90.9731 1.81825 89.0414 1.56256 86.6585 1.56256H84.7973V0H110.911V105.572C110.911 108.91 111.192 111.425 111.771 113.087C112.335 114.763 113.448 115.899 115.112 116.538C116.776 117.163 119.004 117.476 121.796 117.476H123.192V119.038H84.7832H84.7973Z" fill="#F2FBFF"/>
<path d="M122.473 154.437C127.859 154.437 132.343 153.997 135.924 153.102C139.505 152.207 142.537 150.645 145.018 148.4C147.5 146.156 149.714 143.073 151.631 139.153C153.549 135.232 155.438 130.246 157.3 124.195L127.915 45.4136C126.985 42.9135 126.181 41.0242 125.504 39.7742C124.827 38.5241 124.052 37.686 123.178 37.2741C122.289 36.8621 121.077 36.6491 119.526 36.6491H117.975V35.0865H150.785V36.6491H150.01C146.894 36.6491 144.666 36.99 143.326 37.6718C141.973 38.3537 141.31 39.5327 141.31 41.1947C141.31 42.2459 141.522 43.5243 141.931 45.0301C142.339 46.55 142.918 48.2972 143.637 50.2717L154.987 82.8581C155.918 85.4719 156.693 87.7163 157.314 89.5913C157.934 91.4664 158.526 93.2136 159.104 94.833C159.668 96.4524 160.246 98.1712 160.81 100.004C161.374 101.836 162.023 104.052 162.756 106.666C163.687 103.527 164.674 100.117 165.703 96.4098C166.732 92.7023 167.776 89.08 168.819 85.5287L179.084 50.1297C179.704 47.8285 180.142 46.0102 180.409 44.6465C180.663 43.297 180.804 42.189 180.804 41.3509C180.804 39.7884 180.254 38.6094 179.169 37.8281C178.083 37.0468 175.926 36.6491 172.711 36.6491H167.889V35.0865H192.916V36.6491H191.986C189.913 36.6491 188.249 36.9332 187.008 37.5156C185.767 38.098 184.724 39.2202 183.892 40.8822C183.06 42.5584 182.13 45.0585 181.1 48.3967L159.64 122.49C157.666 129.28 155.622 134.863 153.493 139.252C151.363 143.642 149.009 147.037 146.414 149.437C143.82 151.838 140.746 153.528 137.165 154.523C133.583 155.517 129.41 156.014 124.644 156.014H122.473V154.452V154.437Z" fill="#F2FBFF"/>
<path d="M212.022 120.601C206.734 120.601 202.377 119.82 198.965 118.257C195.539 116.695 193.001 114.635 191.351 112.064C189.687 109.507 188.87 106.765 188.87 103.839C188.87 101.438 189.307 99.5349 190.195 98.1286C191.069 96.7223 192.169 95.6995 193.466 95.0745C194.763 94.4495 196.131 94.1369 197.583 94.1369C197.583 99.7764 198.049 104.421 198.979 108.072C199.91 111.723 201.489 114.464 203.717 116.297C205.945 118.129 208.878 119.038 212.501 119.038C217.366 119.038 221.201 117.632 224.007 114.805C226.813 111.979 228.209 107.703 228.209 101.964C228.209 98.4127 227.631 95.5717 226.503 93.4267C225.36 91.2817 223.556 89.3783 221.06 87.7163C218.578 86.0401 215.364 84.1082 211.416 81.9206C206.847 79.5199 203.026 77.1761 199.91 74.8749C196.794 72.5737 194.467 69.9741 192.916 67.0479C191.365 64.1217 190.59 60.4709 190.59 56.0816C190.59 48.7802 192.761 43.2402 197.118 39.4759C201.475 35.7115 207.425 33.8365 214.997 33.8365C219.551 33.8365 223.386 34.4899 226.503 35.7968C229.619 37.1036 231.945 38.8508 233.496 41.0384C235.047 43.226 235.823 45.6835 235.823 48.3966C235.823 51.1098 235.047 53.2548 233.496 54.8173C231.945 56.3799 229.661 57.1612 226.658 57.1612C226.658 49.3342 225.699 43.7516 223.781 40.3992C221.864 37.061 218.733 35.3848 214.377 35.3848C211.472 35.3848 209.019 35.953 206.988 37.1036C204.972 38.2542 203.379 39.9162 202.251 42.118C201.108 44.3056 200.544 47.0756 200.544 50.4138C200.544 53.752 201.165 56.7066 202.406 58.951C203.646 61.1954 205.592 63.1841 208.243 64.9029C210.88 66.6217 214.179 68.4826 218.113 70.4571C222.357 72.5452 225.967 74.6618 228.914 76.8068C231.861 78.9517 234.145 81.5655 235.752 84.6338C237.36 87.7163 238.163 91.6084 238.163 96.2961C238.163 103.924 235.935 109.876 231.48 114.152C227.024 118.428 220.538 120.573 212.05 120.573L212.022 120.601Z" fill="#F2FBFF"/>
<path d="M240.32 119.038V117.476H242.337C245.03 117.476 247.131 117.163 248.639 116.538C250.134 115.913 251.205 114.734 251.826 113.015C252.446 111.297 252.756 108.811 252.756 105.572V48.3966C252.756 45.1579 252.446 42.7288 251.826 41.1094C251.205 39.4901 250.162 38.3395 248.71 37.6576C247.257 36.9758 245.241 36.6349 242.647 36.6349H241.406V35.0723H266.589V105.558C266.589 108.797 266.871 111.268 267.449 113.001C268.013 114.72 269.084 115.899 270.635 116.524C272.186 117.149 274.315 117.462 277.008 117.462H278.715V119.024H240.306L240.32 119.038Z" fill="#F2FBFF"/>
<path d="M301.881 120.601C295.663 120.601 290.615 118.57 286.723 114.493C282.832 110.416 280.9 104.62 280.9 97.1058C280.9 88.9663 283.382 82.9576 288.359 79.0938C293.336 75.23 300.894 73.0851 311.06 72.6731L321.945 72.2043V58.1129C321.945 52.4735 321.607 47.9847 320.93 44.6465C320.253 41.3083 319.069 38.9077 317.349 37.4446C315.643 35.9814 313.231 35.257 310.115 35.257C305.547 35.257 302.417 36.9758 300.711 40.4276C299.005 43.8794 298.144 49.8314 298.144 58.2834C294.309 58.2834 291.376 57.5731 289.36 56.1668C287.344 54.7605 286.329 52.4877 286.329 49.3484C286.329 46.0102 287.414 43.155 289.6 40.8111C291.771 38.4673 294.76 36.6917 298.539 35.4843C302.318 34.291 306.548 33.6802 311.215 33.6802C319.407 33.6802 325.569 35.7115 329.714 39.7884C333.86 43.8652 335.932 50.8541 335.932 60.7835V106.055C335.932 109.194 336.172 111.595 336.637 113.257C337.103 114.933 337.963 116.055 339.204 116.624C340.444 117.192 342.052 117.49 344.026 117.49H344.491V119.053H322.566V103.541H322.255C321.212 107.305 319.746 110.459 317.828 113.015C315.91 115.572 313.598 117.476 310.905 118.726C308.212 119.976 305.209 120.601 301.881 120.601ZM305.928 117.462C309.142 117.462 311.934 116.368 314.317 114.166C316.7 111.979 318.561 108.995 319.915 105.245C321.254 101.481 321.931 97.3615 321.931 92.8727V73.7669L314.007 74.2357C306.745 74.6476 301.754 76.6931 299.005 80.3438C296.255 83.9945 294.887 89.7476 294.887 97.5746C294.887 102.063 295.296 105.771 296.128 108.697C296.96 111.623 298.173 113.811 299.78 115.274C301.387 116.737 303.432 117.462 305.928 117.462Z" fill="#F2FBFF"/>
<path d="M344.181 119.038V117.476H345.267C348.171 117.476 350.399 117.163 351.95 116.538C353.501 115.913 354.545 114.692 355.066 112.859C355.588 111.041 355.842 108.456 355.842 105.103V48.5529C355.842 45.2147 355.588 42.7004 355.066 41.0384C354.545 39.3622 353.529 38.2258 352.035 37.5866C350.526 36.9616 348.383 36.6491 345.577 36.6491H344.802V35.0865H369.519V49.803H369.829C370.858 46.0386 372.339 42.9845 374.256 40.6407C376.174 38.2969 378.472 36.5496 381.18 35.399C383.873 34.2484 386.834 33.6802 390.048 33.6802C397.818 33.6802 403.528 36.0098 407.152 40.6549C410.775 45.3 412.594 52.8002 412.594 63.1273V105.103C412.594 108.441 412.848 110.998 413.37 112.774C413.892 114.55 414.864 115.771 416.317 116.453C417.769 117.135 419.785 117.476 422.38 117.476H423V119.038H398.748V60.4568C398.748 52.7292 397.789 46.8767 395.872 42.9135C393.954 38.9503 390.612 36.9616 385.847 36.9616C382.42 36.9616 379.502 38.027 377.062 40.1719C374.623 42.3169 372.79 45.442 371.549 49.5757C370.308 53.6951 369.688 58.7948 369.688 64.8461V105.416C369.688 108.655 369.97 111.155 370.548 112.93C371.112 114.706 372.127 115.913 373.58 116.538C375.032 117.163 377.161 117.476 379.953 117.476H380.728V119.038H344.195H344.181Z" fill="#F2FBFF"/>
<path d="M79.3125 126.24H0V127.803H79.3125V126.24Z" fill="#F2FBFF"/>
<path d="M255.097 7.61391L259.228 0L263.36 7.61391C264.262 9.27591 265.616 10.6396 267.251 11.5345L274.809 15.6966L267.251 19.8587C265.602 20.7678 264.248 22.1315 263.36 23.7793L259.228 31.3932L255.097 23.7793C254.195 22.1173 252.841 20.7536 251.206 19.8587L243.648 15.6966L251.206 11.5345C252.855 10.6254 254.209 9.2617 255.097 7.61391Z" fill="#F2FBFF"/>
<path d="M79.3125 0H0V1.56256H79.3125V0Z" fill="#F2FBFF"/>
<path d="M194.546 136.102C196.022 136.102 197.179 136.409 198.018 137.023C198.871 137.623 199.297 138.564 199.297 139.847C199.297 140.624 199.121 141.299 198.769 141.872C198.417 142.445 197.923 142.895 197.287 143.223C196.664 143.55 195.927 143.734 195.074 143.775L194.79 142.752C195.778 142.779 196.664 142.957 197.45 143.284C198.235 143.611 198.857 144.068 199.318 144.655C199.778 145.241 200.008 145.937 200.008 146.742C200.008 147.478 199.872 148.113 199.602 148.645C199.331 149.163 198.966 149.593 198.505 149.934C198.045 150.261 197.524 150.507 196.942 150.67C196.36 150.82 195.758 150.895 195.135 150.895H190.77V136.102H194.546ZM194.952 142.588C195.764 142.588 196.353 142.363 196.719 141.913C197.084 141.449 197.267 140.89 197.267 140.235C197.267 139.458 197.03 138.892 196.556 138.537C196.082 138.183 195.446 138.005 194.648 138.005H192.739V142.588H194.952ZM195.033 149.054C195.575 149.054 196.069 148.972 196.516 148.808C196.976 148.645 197.334 148.392 197.592 148.051C197.862 147.71 197.998 147.281 197.998 146.762C197.998 146.189 197.842 145.739 197.531 145.412C197.233 145.085 196.847 144.853 196.373 144.716C195.9 144.566 195.412 144.491 194.912 144.491H192.739V149.054H195.033Z" fill="#F2FBFF"/>
<path d="M224.437 136.102H226.406V150.895H224.437V136.102Z" fill="#F2FBFF"/>
<path d="M259.333 138.742C258.832 138.483 258.284 138.258 257.688 138.067C257.093 137.876 256.511 137.78 255.942 137.78C255.157 137.78 254.528 137.964 254.054 138.333C253.594 138.701 253.364 139.192 253.364 139.806C253.364 140.27 253.513 140.665 253.81 140.992C254.108 141.306 254.501 141.579 254.988 141.811C255.475 142.043 255.983 142.261 256.511 142.466C256.971 142.643 257.425 142.841 257.871 143.059C258.318 143.277 258.717 143.55 259.069 143.877C259.435 144.205 259.719 144.607 259.922 145.085C260.139 145.562 260.247 146.155 260.247 146.865C260.247 147.642 260.051 148.351 259.658 148.992C259.279 149.634 258.731 150.138 258.013 150.507C257.296 150.875 256.443 151.059 255.455 151.059C254.805 151.059 254.183 150.984 253.587 150.834C253.005 150.684 252.464 150.493 251.963 150.261C251.462 150.015 251.015 149.763 250.623 149.504L251.496 147.949C251.821 148.181 252.193 148.406 252.612 148.624C253.032 148.829 253.472 148.999 253.932 149.136C254.392 149.258 254.839 149.32 255.272 149.32C255.733 149.32 256.186 149.238 256.633 149.074C257.093 148.897 257.472 148.631 257.77 148.276C258.068 147.922 258.216 147.451 258.216 146.865C258.216 146.36 258.081 145.944 257.81 145.616C257.553 145.275 257.208 144.989 256.775 144.757C256.342 144.512 255.881 144.293 255.394 144.102C254.934 143.925 254.467 143.734 253.993 143.53C253.519 143.311 253.079 143.052 252.673 142.752C252.267 142.438 251.942 142.056 251.699 141.606C251.455 141.156 251.333 140.611 251.333 139.969C251.333 139.192 251.516 138.517 251.882 137.944C252.261 137.357 252.775 136.9 253.425 136.573C254.074 136.232 254.819 136.048 255.658 136.021C256.606 136.021 257.438 136.137 258.155 136.368C258.886 136.6 259.529 136.887 260.084 137.228L259.333 138.742Z" fill="#F2FBFF"/>
<path d="M283.498 136.102H293.244V138.005H289.305V150.895H287.335V138.005H283.498V136.102Z" fill="#F2FBFF"/>
<path d="M321.386 136.102C322.131 136.102 322.814 136.205 323.437 136.409C324.073 136.6 324.621 136.894 325.082 137.289C325.555 137.671 325.921 138.148 326.178 138.721C326.449 139.281 326.584 139.935 326.584 140.686C326.584 141.272 326.496 141.845 326.32 142.404C326.158 142.963 325.88 143.475 325.488 143.939C325.095 144.389 324.581 144.757 323.945 145.044C323.322 145.316 322.55 145.453 321.63 145.453H319.457V150.895H317.488V136.102H321.386ZM321.589 143.55C322.171 143.55 322.652 143.461 323.031 143.284C323.423 143.107 323.728 142.882 323.945 142.609C324.161 142.322 324.317 142.015 324.412 141.688C324.506 141.361 324.554 141.054 324.554 140.767C324.554 140.467 324.5 140.16 324.391 139.847C324.297 139.519 324.134 139.219 323.904 138.946C323.687 138.674 323.396 138.449 323.031 138.271C322.679 138.094 322.246 138.005 321.731 138.005H319.457V143.55H321.589ZM324.005 144.675L327.843 150.895H325.569L321.671 144.737L324.005 144.675Z" fill="#F2FBFF"/>
<path d="M350.757 143.509C350.757 142.486 350.947 141.524 351.326 140.624C351.718 139.71 352.26 138.905 352.95 138.21C353.64 137.501 354.432 136.948 355.326 136.553C356.232 136.143 357.207 135.939 358.249 135.939C359.278 135.939 360.239 136.143 361.132 136.553C362.039 136.948 362.838 137.501 363.528 138.21C364.232 138.905 364.78 139.71 365.173 140.624C365.566 141.524 365.762 142.486 365.762 143.509C365.762 144.559 365.566 145.541 365.173 146.455C364.78 147.369 364.232 148.174 363.528 148.87C362.838 149.552 362.039 150.09 361.132 150.486C360.239 150.868 359.278 151.059 358.249 151.059C357.207 151.059 356.232 150.868 355.326 150.486C354.432 150.104 353.64 149.572 352.95 148.89C352.26 148.208 351.718 147.41 351.326 146.496C350.947 145.582 350.757 144.587 350.757 143.509ZM352.788 143.53C352.788 144.307 352.93 145.037 353.214 145.719C353.498 146.387 353.891 146.981 354.392 147.499C354.892 148.017 355.474 148.426 356.138 148.726C356.801 149.013 357.518 149.156 358.29 149.156C359.048 149.156 359.759 149.013 360.422 148.726C361.085 148.426 361.66 148.017 362.148 147.499C362.635 146.981 363.021 146.387 363.305 145.719C363.589 145.037 363.731 144.3 363.731 143.509C363.731 142.732 363.589 142.002 363.305 141.32C363.021 140.624 362.628 140.017 362.127 139.499C361.627 138.98 361.044 138.578 360.381 138.292C359.718 137.992 359.007 137.842 358.249 137.842C357.478 137.842 356.76 137.992 356.097 138.292C355.434 138.592 354.852 139.001 354.351 139.519C353.85 140.038 353.464 140.645 353.194 141.34C352.923 142.022 352.788 142.752 352.788 143.53Z" fill="#F2FBFF"/>
</g>
<defs>
<clipPath id="clip0_226_1198">
<rect width="423" height="156" fill="white"/>
</clipPath>
</defs>
</svg>
