<?xml version="1.0" encoding="UTF-8"?><svg id="uuid-b7748a37-5ed7-4481-9ff5-4f0193ddaf4b" xmlns="http://www.w3.org/2000/svg" viewBox="0 0 300 109.82"><defs><style>.uuid-4ca2202c-43a3-4aaf-9099-ba250215fa0e{fill:#13181a;}</style></defs><g id="uuid-dd0a25db-5224-485f-b45d-d4edda70e052"><path class="uuid-4ca2202c-43a3-4aaf-9099-ba250215fa0e" d="m3.13,83.8v-1.1h2.09c1.62,0,2.94-.22,3.97-.66,1.03-.44,1.76-1.27,2.21-2.48.44-1.21.66-2.92.66-5.13V14.44c0-2.28-.22-4.01-.66-5.18-.44-1.17-1.18-1.98-2.21-2.43-1.03-.44-2.35-.66-3.97-.66h-2.09v-1.1h48.19l.55,19.19h-1.1l-.22-5.18c-.22-3.38-.75-6.01-1.6-7.88-.85-1.87-2.19-3.18-4.02-3.91-1.84-.73-4.45-1.1-7.83-1.1h-14.89v35.84h23.82v1.1h-23.82l-.11,39.59h18.08c3.31,0,5.9-.35,7.77-1.05,1.87-.7,3.23-1.93,4.08-3.69.84-1.76,1.38-4.23,1.6-7.39l.33-5.95h1.1l-.66,19.19H3.13Z"/><path class="uuid-4ca2202c-43a3-4aaf-9099-ba250215fa0e" d="m60.14,83.8v-1.1h.88c2.06,0,3.66-.22,4.8-.66,1.14-.44,1.93-1.25,2.37-2.43.44-1.18.66-2.87.66-5.07V9.04c0-2.28-.28-3.99-.83-5.13-.55-1.14-1.36-1.89-2.43-2.26-1.07-.37-2.44-.55-4.13-.55h-1.32V0h18.52v74.32c0,2.35.2,4.12.61,5.29.4,1.18,1.19,1.98,2.37,2.43,1.18.44,2.76.66,4.74.66h.99v1.1h-27.24Z"/><path class="uuid-4ca2202c-43a3-4aaf-9099-ba250215fa0e" d="m86.86,108.72c3.82,0,7-.31,9.54-.94,2.54-.63,4.69-1.73,6.45-3.31,1.76-1.58,3.33-3.75,4.69-6.51,1.36-2.76,2.7-6.27,4.02-10.53l-20.84-55.46c-.66-1.76-1.23-3.09-1.71-3.97-.48-.88-1.03-1.47-1.65-1.76-.63-.29-1.49-.44-2.59-.44h-1.1v-1.1h23.27v1.1h-.55c-2.21,0-3.79.24-4.74.72-.96.48-1.43,1.31-1.43,2.48,0,.74.15,1.64.44,2.7.29,1.07.7,2.3,1.21,3.69l8.05,22.94c.66,1.84,1.21,3.42,1.65,4.74.44,1.32.86,2.55,1.27,3.69.4,1.14.81,2.35,1.21,3.64.4,1.29.86,2.85,1.38,4.69.66-2.21,1.36-4.61,2.09-7.22.73-2.61,1.47-5.16,2.21-7.66l7.28-24.92c.44-1.62.75-2.9.94-3.86.18-.95.28-1.73.28-2.32,0-1.1-.39-1.93-1.16-2.48-.77-.55-2.3-.83-4.58-.83h-3.42v-1.1h17.75v1.1h-.66c-1.47,0-2.65.2-3.53.61-.88.41-1.62,1.2-2.21,2.37-.59,1.18-1.25,2.94-1.98,5.29l-15.22,52.16c-1.4,4.78-2.85,8.71-4.36,11.8-1.51,3.09-3.18,5.48-5.02,7.17-1.84,1.69-4.02,2.88-6.56,3.58-2.54.7-5.5,1.05-8.88,1.05h-1.54v-1.1Z"/><path class="uuid-4ca2202c-43a3-4aaf-9099-ba250215fa0e" d="m150.37,84.9c-3.75,0-6.84-.55-9.26-1.65-2.43-1.1-4.23-2.55-5.4-4.36-1.18-1.8-1.76-3.73-1.76-5.79,0-1.69.31-3.03.94-4.02.62-.99,1.4-1.71,2.32-2.15.92-.44,1.89-.66,2.92-.66,0,3.97.33,7.24.99,9.81.66,2.57,1.78,4.5,3.36,5.79,1.58,1.29,3.66,1.93,6.23,1.93,3.45,0,6.17-.99,8.16-2.98s2.98-5,2.98-9.04c0-2.5-.41-4.5-1.21-6.01-.81-1.51-2.09-2.85-3.86-4.02-1.76-1.18-4.04-2.54-6.84-4.08-3.24-1.69-5.95-3.34-8.16-4.96-2.21-1.62-3.86-3.45-4.96-5.51-1.1-2.06-1.65-4.63-1.65-7.72,0-5.14,1.54-9.04,4.63-11.69,3.09-2.65,7.31-3.97,12.68-3.97,3.23,0,5.95.46,8.16,1.38,2.21.92,3.86,2.15,4.96,3.69,1.1,1.54,1.65,3.27,1.65,5.18s-.55,3.42-1.65,4.52c-1.1,1.1-2.72,1.65-4.85,1.65,0-5.51-.68-9.44-2.04-11.8-1.36-2.35-3.58-3.53-6.67-3.53-2.06,0-3.8.4-5.24,1.21-1.43.81-2.56,1.98-3.36,3.53-.81,1.54-1.21,3.49-1.21,5.84s.44,4.43,1.32,6.01c.88,1.58,2.26,2.98,4.14,4.19,1.87,1.21,4.21,2.52,7,3.91,3.01,1.47,5.57,2.96,7.66,4.47,2.09,1.51,3.71,3.35,4.85,5.51,1.14,2.17,1.71,4.91,1.71,8.21,0,5.37-1.58,9.56-4.74,12.57-3.16,3.01-7.76,4.52-13.78,4.52Z"/><path class="uuid-4ca2202c-43a3-4aaf-9099-ba250215fa0e" d="m170.44,83.8v-1.1h1.43c1.91,0,3.4-.22,4.47-.66,1.06-.44,1.82-1.27,2.26-2.48.44-1.21.66-2.96.66-5.24v-40.25c0-2.28-.22-3.99-.66-5.13-.44-1.14-1.18-1.95-2.21-2.43-1.03-.48-2.46-.72-4.3-.72h-.88v-1.1h17.86v49.62c0,2.28.2,4.02.61,5.24.4,1.21,1.16,2.04,2.26,2.48,1.1.44,2.61.66,4.52.66h1.21v1.1h-27.24Z"/><path class="uuid-4ca2202c-43a3-4aaf-9099-ba250215fa0e" d="m214.1,84.9c-4.41,0-7.99-1.43-10.75-4.3-2.76-2.87-4.13-6.95-4.13-12.24,0-5.73,1.76-9.96,5.29-12.68,3.53-2.72,8.89-4.23,16.1-4.52l7.72-.33v-9.92c0-3.97-.24-7.13-.72-9.48-.48-2.35-1.32-4.04-2.54-5.07-1.21-1.03-2.92-1.54-5.13-1.54-3.24,0-5.46,1.21-6.67,3.64-1.21,2.43-1.82,6.62-1.82,12.57-2.72,0-4.8-.5-6.23-1.49-1.43-.99-2.15-2.59-2.15-4.8,0-2.35.77-4.36,2.32-6.01,1.54-1.65,3.66-2.9,6.34-3.75,2.68-.84,5.68-1.27,8.99-1.27,5.81,0,10.18,1.43,13.12,4.3,2.94,2.87,4.41,7.79,4.41,14.78v31.87c0,2.21.17,3.9.5,5.07.33,1.18.94,1.97,1.82,2.37.88.4,2.02.61,3.42.61h.33v1.1h-15.55v-10.92h-.22c-.74,2.65-1.78,4.87-3.14,6.67-1.36,1.8-3,3.14-4.91,4.02-1.91.88-4.04,1.32-6.4,1.32Zm2.87-2.21c2.28,0,4.26-.77,5.95-2.32,1.69-1.54,3.01-3.64,3.97-6.28.95-2.65,1.43-5.55,1.43-8.71v-13.45l-5.62.33c-5.15.29-8.69,1.73-10.64,4.3-1.95,2.57-2.92,6.62-2.92,12.13,0,3.16.29,5.77.88,7.83.59,2.06,1.45,3.6,2.59,4.63,1.14,1.03,2.59,1.54,4.36,1.54Z"/><path class="uuid-4ca2202c-43a3-4aaf-9099-ba250215fa0e" d="m244.1,83.8v-1.1h.77c2.06,0,3.64-.22,4.74-.66,1.1-.44,1.84-1.3,2.21-2.59.37-1.28.55-3.1.55-5.46v-39.81c0-2.35-.18-4.12-.55-5.29-.37-1.18-1.09-1.98-2.15-2.43-1.07-.44-2.59-.66-4.58-.66h-.55v-1.1h17.53v10.36h.22c.73-2.65,1.78-4.8,3.14-6.45,1.36-1.65,2.99-2.88,4.91-3.69,1.91-.81,4.01-1.21,6.29-1.21,5.51,0,9.56,1.64,12.13,4.91,2.57,3.27,3.86,8.55,3.86,15.82v29.55c0,2.35.18,4.15.55,5.4.37,1.25,1.06,2.11,2.09,2.59,1.03.48,2.46.72,4.3.72h.44v1.1h-17.2v-41.24c0-5.44-.68-9.56-2.04-12.35-1.36-2.79-3.73-4.19-7.11-4.19-2.43,0-4.5.75-6.23,2.26-1.73,1.51-3.03,3.71-3.91,6.62-.88,2.9-1.32,6.49-1.32,10.75v28.56c0,2.28.2,4.04.61,5.29.4,1.25,1.12,2.1,2.15,2.54,1.03.44,2.54.66,4.52.66h.55v1.1h-25.91Z"/><rect class="uuid-4ca2202c-43a3-4aaf-9099-ba250215fa0e" y="88.87" width="56.25" height="1.1"/><path class="uuid-4ca2202c-43a3-4aaf-9099-ba250215fa0e" d="m180.92,5.36l2.93-5.36,2.93,5.36c.64,1.17,1.6,2.13,2.76,2.76l5.36,2.93-5.36,2.93c-1.17.64-2.13,1.6-2.76,2.76l-2.93,5.36-2.93-5.36c-.64-1.17-1.6-2.13-2.76-2.76l-5.36-2.93,5.36-2.93c1.17-.64,2.13-1.6,2.76-2.76Z"/><rect class="uuid-4ca2202c-43a3-4aaf-9099-ba250215fa0e" width="56.25" height="1.1"/></g></svg>