<?xml version="1.0" encoding="UTF-8"?><svg id="light" xmlns="http://www.w3.org/2000/svg" viewBox="0 0 512 512"><defs><style>.cls-1{fill:#f2fbff;stroke-width:0px;}</style></defs><path class="cls-1" d="M362.85,331.31c-.98,0-1.98-.2-2.93-.61-2.79-1.2-4.53-3.94-4.44-6.97.88-29.99,12.8-50.5,22.12-62.05H81.02c-3.33,0-6.03-2.7-6.03-6.03s2.7-6.03,6.03-6.03h309.31c2.72,0,5.2,1.71,6.16,4.26.97,2.58.26,5.43-1.81,7.25-3.83,3.37-21.18,20.12-25.96,50.28l55.16-55.16c-15.61-10.71-48.45-35.49-57.22-59.67-1.14-3.13.48-6.59,3.62-7.73,3.13-1.14,6.59.48,7.73,3.62,8.14,22.45,43.73,47.79,54.44,55.02,2.55,1.72,4.18,4.46,4.47,7.52.29,3.06-.78,6.07-2.96,8.24l-65.92,65.92c-1.41,1.41-3.28,2.16-5.18,2.16Z"/></svg>