<?xml version="1.0" encoding="UTF-8"?><svg id="light" xmlns="http://www.w3.org/2000/svg" viewBox="0 0 512 512"><defs><style>.cls-1{fill:#f2fbff;stroke-width:0px;}</style></defs><path class="cls-1" d="M143.91,329.15l-65.92-65.92c-2.18-2.18-3.26-5.18-2.96-8.24.29-3.06,1.92-5.8,4.47-7.52,10.71-7.23,46.3-32.57,54.44-55.02,1.14-3.13,4.6-4.75,7.73-3.62,3.13,1.14,4.75,4.6,3.62,7.73-8.77,24.19-41.61,48.96-57.22,59.67l55.16,55.16c-4.77-30.16-22.13-46.91-25.96-50.28-2.07-1.82-2.78-4.67-1.81-7.25.96-2.55,3.44-4.26,6.16-4.26h309.31c3.33,0,6.03,2.7,6.03,6.03s-2.7,6.03-6.03,6.03H134.35c9.32,11.54,21.24,32.05,22.12,62.05.09,3.03-1.66,5.77-4.44,6.97-.95.41-1.94.61-2.93.61-1.9,0-3.77-.75-5.18-2.16Z"/></svg>